<svg xmlns="http://www.w3.org/2000/svg" width="0" height="0" style="position:absolute" aria-hidden="true">
  <defs>
    <symbol id="i-logo" viewBox="0 0 24 24">
      <path d="M3 12c3-6 6-6 9 0s6 6 9 0" />
      <circle cx="3" cy="12" r="1.6" fill="currentColor" stroke="none" />
      <circle cx="21" cy="12" r="1.6" fill="currentColor" stroke="none" />
    </symbol>
    <symbol id="i-bolt" viewBox="0 0 24 24">
      <path d="M13 2L4 14h7l-1 8 10-12h-7l1-8z" />
    </symbol>
    <symbol id="i-package" viewBox="0 0 24 24">
      <path d="M21 16V8a2 2 0 0 0-1-1.73l-7-4a2 2 0 0 0-2 0l-7 4A2 2 0 0 0 3 8v8a2 2 0 0 0 1 1.73l7 4a2 2 0 0 0 2 0l7-4A2 2 0 0 0 21 16z" />
      <polyline points="3.27 6.96 12 12.01 20.73 6.96" />
      <line x1="12" y1="22.08" x2="12" y2="12" />
    </symbol>
    <symbol id="i-wave" viewBox="0 0 24 24">
      <path d="M2 12c1.5 0 1.5-2 3-2s1.5 2 3 2 1.5-2 3-2 1.5 2 3 2 1.5-2 3-2 1.5 2 3 2 1.5-2 3-2" />
      <path d="M2 17c1.5 0 1.5-2 3-2s1.5 2 3 2 1.5-2 3-2 1.5 2 3 2 1.5-2 3-2 1.5 2 3 2 1.5-2 3-2" />
      <path d="M2 7c1.5 0 1.5-2 3-2s1.5 2 3 2 1.5-2 3-2 1.5 2 3 2 1.5-2 3-2 1.5 2 3 2 1.5-2 3-2" />
    </symbol>
    <symbol id="i-headphones" viewBox="0 0 24 24">
      <path d="M3 18v-6a9 9 0 0 1 18 0v6" />
      <path d="M21 19a2 2 0 0 1-2 2h-1a2 2 0 0 1-2-2v-3a2 2 0 0 1 2-2h3z" />
      <path d="M3 19a2 2 0 0 0 2 2h1a2 2 0 0 0 2-2v-3a2 2 0 0 0-2-2H3z" />
    </symbol>
    <symbol id="i-watch" viewBox="0 0 24 24">
      <circle cx="12" cy="12" r="6" />
      <polyline points="12 10 12 12 13 13" />
      <path d="M16.13 7.66l-.81-4.05a2 2 0 0 0-2-1.61h-2.68a2 2 0 0 0-2 1.61l-.78 4.05" />
      <path d="M7.88 16.36l.8 4.05a2 2 0 0 0 2 1.61h2.72a2 2 0 0 0 2-1.61l.81-4.05" />
    </symbol>
    <symbol id="i-battery" viewBox="0 0 24 24">
      <rect x="2" y="7" width="18" height="11" rx="2" ry="2" />
      <line x1="22" y1="11" x2="22" y2="14" />
      <line x1="6" y1="10" x2="6" y2="15" />
      <line x1="10" y1="10" x2="10" y2="15" />
      <line x1="14" y1="10" x2="14" y2="15" />
    </symbol>
    <symbol id="i-camera" viewBox="0 0 24 24">
      <path d="M23 19a2 2 0 0 1-2 2H3a2 2 0 0 1-2-2V8a2 2 0 0 1 2-2h4l2-3h6l2 3h4a2 2 0 0 1 2 2z" />
      <circle cx="12" cy="13" r="4" />
    </symbol>
    <symbol id="i-shield" viewBox="0 0 24 24">
      <path d="M12 22s8-4 8-10V5l-8-3-8 3v7c0 6 8 10 8 10z" />
      <path d="M9 12l2 2 4-4" />
    </symbol>
    <symbol id="i-sparkle" viewBox="0 0 24 24">
      <path d="M12 3l1.8 5.2L19 10l-5.2 1.8L12 17l-1.8-5.2L5 10l5.2-1.8z" />
    </symbol>
    <symbol id="i-arrow-left" viewBox="0 0 24 24">
      <line x1="19" y1="12" x2="5" y2="12" />
      <polyline points="12 19 5 12 12 5" />
    </symbol>
    <symbol id="i-arrow-right" viewBox="0 0 24 24">
      <line x1="5" y1="12" x2="19" y2="12" />
      <polyline points="12 5 19 12 12 19" />
    </symbol>
    <symbol id="i-search" viewBox="0 0 24 24">
      <circle cx="11" cy="11" r="8" />
      <line x1="21" y1="21" x2="16.65" y2="16.65" />
    </symbol>
    <symbol id="i-filter" viewBox="0 0 24 24">
      <path d="M22 3H2l8 9.46V19l4 2v-8.54z" />
    </symbol>
    <symbol id="i-check" viewBox="0 0 24 24">
      <polyline points="20 6 9 17 4 12" />
    </symbol>
    <symbol id="i-box" viewBox="0 0 24 24">
      <path d="M21 8V21H3V8" />
      <rect x="1" y="3" width="22" height="5" rx="1" />
      <line x1="10" y1="12" x2="14" y2="12" />
    </symbol>
    <symbol id="i-globe" viewBox="0 0 24 24">
      <circle cx="12" cy="12" r="9" />
      <line x1="3" y1="12" x2="21" y2="12" />
      <path d="M12 3a14 14 0 0 1 0 18" />
      <path d="M12 3a14 14 0 0 0 0 18" />
    </symbol>
  </defs>
</svg>
